{
    "asset" : {
        "generator" : "Khronos glTF Blender I/O v1.7.33",
        "version" : "2.0"
    },
    "scene" : 0,
    "scenes" : [
        {
            "name" : "Scene",
            "nodes" : [
                0
            ]
        }
    ],
    "nodes" : [
        {
            "mesh" : 0,
            "name" : "Plane.002",
            "scale" : [
                2,
                1.898419976234436,
                2
            ]
        }
    ],
    "materials" : [
        {
            "doubleSided" : true,
            "name" : "sidewalk",
            "pbrMetallicRoughness" : {
                "baseColorFactor" : [
                    0.34238332509994507,
                    0.34238332509994507,
                    0.34238332509994507,
                    1
                ],
                "metallicFactor" : 0
            }
        },
        {
            "doubleSided" : true,
            "name" : "sand",
            "pbrMetallicRoughness" : {
                "baseColorFactor" : [
                    0.8549798727035522,
                    0.6409146189689636,
                    0.10137400031089783,
                    1
                ],
                "metallicFactor" : 0
            }
        },
        {
            "doubleSided" : true,
            "name" : "grass",
            "pbrMetallicRoughness" : {
                "baseColorFactor" : [
                    0.06950131058692932,
                    0.13286158442497253,
                    0,
                    1
                ],
                "metallicFactor" : 0
            }
        },
        {
            "doubleSided" : true,
            "name" : "canopy",
            "pbrMetallicRoughness" : {
                "baseColorFactor" : [
                    0.11953845620155334,
                    0.21952618658542633,
                    0.01680738851428032,
                    1
                ],
                "metallicFactor" : 0
            }
        },
        {
            "doubleSided" : true,
            "name" : "trunk",
            "pbrMetallicRoughness" : {
                "baseColorFactor" : [
                    0.11068858951330185,
                    0.05614372715353966,
                    0,
                    1
                ],
                "metallicFactor" : 0
            }
        }
    ],
    "meshes" : [
        {
            "name" : "Plane.002",
            "primitives" : [
                {
                    "attributes" : {
                        "POSITION" : 0,
                        "NORMAL" : 1,
                        "TEXCOORD_0" : 2
                    },
                    "indices" : 3,
                    "material" : 0
                },
                {
                    "attributes" : {
                        "POSITION" : 4,
                        "NORMAL" : 5,
                        "TEXCOORD_0" : 6
                    },
                    "indices" : 7,
                    "material" : 1
                },
                {
                    "attributes" : {
                        "POSITION" : 8,
                        "NORMAL" : 9,
                        "TEXCOORD_0" : 10
                    },
                    "indices" : 11,
                    "material" : 2
                },
                {
                    "attributes" : {
                        "POSITION" : 12,
                        "NORMAL" : 13,
                        "TEXCOORD_0" : 14
                    },
                    "indices" : 15,
                    "material" : 3
                },
                {
                    "attributes" : {
                        "POSITION" : 16,
                        "NORMAL" : 17,
                        "TEXCOORD_0" : 18
                    },
                    "indices" : 19,
                    "material" : 4
                }
            ]
        }
    ],
    "accessors" : [
        {
            "bufferView" : 0,
            "componentType" : 5126,
            "count" : 62,
            "max" : [
                1,
                0.1316884607076645,
                1
            ],
            "min" : [
                -1,
                0,
                -1
            ],
            "type" : "VEC3"
        },
        {
            "bufferView" : 1,
            "componentType" : 5126,
            "count" : 62,
            "type" : "VEC3"
        },
        {
            "bufferView" : 2,
            "componentType" : 5126,
            "count" : 62,
            "type" : "VEC2"
        },
        {
            "bufferView" : 3,
            "componentType" : 5123,
            "count" : 96,
            "type" : "SCALAR"
        },
        {
            "bufferView" : 4,
            "componentType" : 5126,
            "count" : 48,
            "max" : [
                0.5,
                0.09284036606550217,
                0.75
            ],
            "min" : [
                -0.5500000715255737,
                0.06584423035383224,
                -0.7500000596046448
            ],
            "type" : "VEC3"
        },
        {
            "bufferView" : 5,
            "componentType" : 5126,
            "count" : 48,
            "type" : "VEC3"
        },
        {
            "bufferView" : 6,
            "componentType" : 5126,
            "count" : 48,
            "type" : "VEC2"
        },
        {
            "bufferView" : 7,
            "componentType" : 5123,
            "count" : 72,
            "type" : "SCALAR"
        },
        {
            "bufferView" : 8,
            "componentType" : 5126,
            "count" : 28,
            "max" : [
                0.75,
                0.06584423035383224,
                0.75
            ],
            "min" : [
                -0.75,
                0.06584423035383224,
                -0.7500000596046448
            ],
            "type" : "VEC3"
        },
        {
            "bufferView" : 9,
            "componentType" : 5126,
            "count" : 28,
            "type" : "VEC3"
        },
        {
            "bufferView" : 10,
            "componentType" : 5126,
            "count" : 28,
            "type" : "VEC2"
        },
        {
            "bufferView" : 11,
            "componentType" : 5123,
            "count" : 30,
            "type" : "SCALAR"
        },
        {
            "bufferView" : 12,
            "componentType" : 5126,
            "count" : 252,
            "max" : [
                1.179239273071289,
                2.2709028720855713,
                0.4761391282081604
            ],
            "min" : [
                -0.1803290843963623,
                0.8933640718460083,
                -1.2976701259613037
            ],
            "type" : "VEC3"
        },
        {
            "bufferView" : 13,
            "componentType" : 5126,
            "count" : 252,
            "type" : "VEC3"
        },
        {
            "bufferView" : 14,
            "componentType" : 5126,
            "count" : 252,
            "type" : "VEC2"
        },
        {
            "bufferView" : 15,
            "componentType" : 5123,
            "count" : 258,
            "type" : "SCALAR"
        },
        {
            "bufferView" : 16,
            "componentType" : 5126,
            "count" : 220,
            "max" : [
                0.9377700686454773,
                1.499090313911438,
                0.07643008232116699
            ],
            "min" : [
                0.1900348663330078,
                0,
                -1.0101511478424072
            ],
            "type" : "VEC3"
        },
        {
            "bufferView" : 17,
            "componentType" : 5126,
            "count" : 220,
            "type" : "VEC3"
        },
        {
            "bufferView" : 18,
            "componentType" : 5126,
            "count" : 220,
            "type" : "VEC2"
        },
        {
            "bufferView" : 19,
            "componentType" : 5123,
            "count" : 330,
            "type" : "SCALAR"
        }
    ],
    "bufferViews" : [
        {
            "buffer" : 0,
            "byteLength" : 744,
            "byteOffset" : 0
        },
        {
            "buffer" : 0,
            "byteLength" : 744,
            "byteOffset" : 744
        },
        {
            "buffer" : 0,
            "byteLength" : 496,
            "byteOffset" : 1488
        },
        {
            "buffer" : 0,
            "byteLength" : 192,
            "byteOffset" : 1984
        },
        {
            "buffer" : 0,
            "byteLength" : 576,
            "byteOffset" : 2176
        },
        {
            "buffer" : 0,
            "byteLength" : 576,
            "byteOffset" : 2752
        },
        {
            "buffer" : 0,
            "byteLength" : 384,
            "byteOffset" : 3328
        },
        {
            "buffer" : 0,
            "byteLength" : 144,
            "byteOffset" : 3712
        },
        {
            "buffer" : 0,
            "byteLength" : 336,
            "byteOffset" : 3856
        },
        {
            "buffer" : 0,
            "byteLength" : 336,
            "byteOffset" : 4192
        },
        {
            "buffer" : 0,
            "byteLength" : 224,
            "byteOffset" : 4528
        },
        {
            "buffer" : 0,
            "byteLength" : 60,
            "byteOffset" : 4752
        },
        {
            "buffer" : 0,
            "byteLength" : 3024,
            "byteOffset" : 4812
        },
        {
            "buffer" : 0,
            "byteLength" : 3024,
            "byteOffset" : 7836
        },
        {
            "buffer" : 0,
            "byteLength" : 2016,
            "byteOffset" : 10860
        },
        {
            "buffer" : 0,
            "byteLength" : 516,
            "byteOffset" : 12876
        },
        {
            "buffer" : 0,
            "byteLength" : 2640,
            "byteOffset" : 13392
        },
        {
            "buffer" : 0,
            "byteLength" : 2640,
            "byteOffset" : 16032
        },
        {
            "buffer" : 0,
            "byteLength" : 1760,
            "byteOffset" : 18672
        },
        {
            "buffer" : 0,
            "byteLength" : 660,
            "byteOffset" : 20432
        }
    ],
    "buffers" : [
        {
            "byteLength" : 21092,
            "uri" : "data:application/octet-stream;base64,"
        }
    ]
}
