{
    "asset" : {
        "generator" : "Khronos glTF Blender I/O v1.7.33",
        "version" : "2.0"
    },
    "scene" : 0,
    "scenes" : [
        {
            "name" : "Scene",
            "nodes" : [
                0
            ]
        }
    ],
    "nodes" : [
        {
            "mesh" : 0,
            "name" : "Plane.001",
            "scale" : [
                0.31883472204208374,
                0.31883472204208374,
                0.31883472204208374
            ],
            "translation" : [
                0.12999999523162842,
                0,
                0
            ]
        }
    ],
    "materials" : [
        {
            "doubleSided" : true,
            "name" : "palette",
            "pbrMetallicRoughness" : {
                "baseColorTexture" : {
                    "index" : 0
                },
                "metallicFactor" : 0
            }
        }
    ],
    "meshes" : [
        {
            "name" : "Plane.001",
            "primitives" : [
                {
                    "attributes" : {
                        "POSITION" : 0,
                        "NORMAL" : 1,
                        "TEXCOORD_0" : 2
                    },
                    "indices" : 3,
                    "material" : 0
                }
            ]
        }
    ],
    "textures" : [
        {
            "sampler" : 0,
            "source" : 0
        }
    ],
    "images" : [
        {
            "bufferView" : 4,
            "mimeType" : "image/png",
            "name" : "granary"
        }
    ],
    "accessors" : [
        {
            "bufferView" : 0,
            "componentType" : 5126,
            "count" : 3354,
            "max" : [
                1.1601494550704956,
                2.9335649013519287,
                1.5635693073272705
            ],
            "min" : [
                -1.9695355892181396,
                -3.1364212036132812,
                -1.5676844120025635
            ],
            "type" : "VEC3"
        },
        {
            "bufferView" : 1,
            "componentType" : 5126,
            "count" : 3354,
            "type" : "VEC3"
        },
        {
            "bufferView" : 2,
            "componentType" : 5126,
            "count" : 3354,
            "type" : "VEC2"
        },
        {
            "bufferView" : 3,
            "componentType" : 5123,
            "count" : 5298,
            "type" : "SCALAR"
        }
    ],
    "bufferViews" : [
        {
            "buffer" : 0,
            "byteLength" : 40248,
            "byteOffset" : 0
        },
        {
            "buffer" : 0,
            "byteLength" : 40248,
            "byteOffset" : 40248
        },
        {
            "buffer" : 0,
            "byteLength" : 26832,
            "byteOffset" : 80496
        },
        {
            "buffer" : 0,
            "byteLength" : 10596,
            "byteOffset" : 107328
        },
        {
            "buffer" : 0,
            "byteLength" : 185,
            "byteOffset" : 117924
        }
    ],
    "samplers" : [
        {
            "magFilter" : 9729,
            "minFilter" : 9987
        }
    ],
    "buffers" : [
        {
            "byteLength" : 118112,
            "uri" : "data:application/octet-stream;base64,"
        }
    ]
}
