{
    "asset" : {
        "generator" : "Khronos glTF Blender I/O v1.7.33",
        "version" : "2.0"
    },
    "scene" : 0,
    "scenes" : [
        {
            "name" : "Scene",
            "nodes" : [
                0,
                1
            ]
        }
    ],
    "nodes" : [
        {
            "mesh" : 0,
            "name" : "Cube.001",
            "rotation" : [
                0,
                0,
                0.7260147333145142,
                0.6876792311668396
            ],
            "scale" : [
                0.16694165766239166,
                0.16694165766239166,
                0.16694165766239166
            ]
        },
        {
            "mesh" : 1,
            "name" : "Cube.002",
            "rotation" : [
                0,
                0,
                0.14514166116714478,
                0.9894108772277832
            ],
            "scale" : [
                0.16694165766239166,
                0.16694165766239166,
                0.16694165766239166
            ],
            "translation" : [
                0.0070503950119018555,
                1.535061001777649,
                -0.4182427227497101
            ]
        }
    ],
    "animations" : [
        {
            "channels" : [
                {
                    "sampler" : 0,
                    "target" : {
                        "node" : 1,
                        "path" : "rotation"
                    }
                }
            ],
            "name" : "Cube.002Action.001",
            "samplers" : [
                {
                    "input" : 8,
                    "interpolation" : "LINEAR",
                    "output" : 9
                }
            ]
        }
    ],
    "materials" : [
        {
            "doubleSided" : true,
            "name" : "palette",
            "pbrMetallicRoughness" : {
                "baseColorTexture" : {
                    "index" : 0
                },
                "metallicFactor" : 0,
                "roughnessFactor" : 0.5
            }
        }
    ],
    "meshes" : [
        {
            "name" : "Cube.002",
            "primitives" : [
                {
                    "attributes" : {
                        "POSITION" : 0,
                        "NORMAL" : 1,
                        "TEXCOORD_0" : 2
                    },
                    "indices" : 3,
                    "material" : 0
                }
            ]
        },
        {
            "name" : "Cube.001",
            "primitives" : [
                {
                    "attributes" : {
                        "POSITION" : 4,
                        "NORMAL" : 5,
                        "TEXCOORD_0" : 6
                    },
                    "indices" : 7,
                    "material" : 0
                }
            ]
        }
    ],
    "textures" : [
        {
            "sampler" : 0,
            "source" : 0
        }
    ],
    "images" : [
        {
            "bufferView" : 4,
            "mimeType" : "image/png",
            "name" : "mill"
        }
    ],
    "accessors" : [
        {
            "bufferView" : 0,
            "componentType" : 5126,
            "count" : 1527,
            "max" : [
                11.978020668029785,
                3.3169105052948,
                2.995058298110962
            ],
            "min" : [
                -6.144372940063477,
                -2.809969425201416,
                -2.995058298110962
            ],
            "type" : "VEC3"
        },
        {
            "bufferView" : 1,
            "componentType" : 5126,
            "count" : 1527,
            "type" : "VEC3"
        },
        {
            "bufferView" : 2,
            "componentType" : 5126,
            "count" : 1527,
            "type" : "VEC2"
        },
        {
            "bufferView" : 3,
            "componentType" : 5123,
            "count" : 2277,
            "type" : "SCALAR"
        },
        {
            "bufferView" : 5,
            "componentType" : 5126,
            "count" : 256,
            "max" : [
                4.560667037963867,
                4.559957504272461,
                0.5363748073577881
            ],
            "min" : [
                -4.559018611907959,
                -4.559727191925049,
                -0.1709909439086914
            ],
            "type" : "VEC3"
        },
        {
            "bufferView" : 6,
            "componentType" : 5126,
            "count" : 256,
            "type" : "VEC3"
        },
        {
            "bufferView" : 7,
            "componentType" : 5126,
            "count" : 256,
            "type" : "VEC2"
        },
        {
            "bufferView" : 8,
            "componentType" : 5123,
            "count" : 384,
            "type" : "SCALAR"
        },
        {
            "bufferView" : 9,
            "componentType" : 5126,
            "count" : 239,
            "max" : [
                4
            ],
            "min" : [
                0.03333333333333333
            ],
            "type" : "SCALAR"
        },
        {
            "bufferView" : 10,
            "componentType" : 5126,
            "count" : 239,
            "type" : "VEC4"
        }
    ],
    "bufferViews" : [
        {
            "buffer" : 0,
            "byteLength" : 18324,
            "byteOffset" : 0
        },
        {
            "buffer" : 0,
            "byteLength" : 18324,
            "byteOffset" : 18324
        },
        {
            "buffer" : 0,
            "byteLength" : 12216,
            "byteOffset" : 36648
        },
        {
            "buffer" : 0,
            "byteLength" : 4554,
            "byteOffset" : 48864
        },
        {
            "buffer" : 0,
            "byteLength" : 166,
            "byteOffset" : 53420
        },
        {
            "buffer" : 0,
            "byteLength" : 3072,
            "byteOffset" : 53588
        },
        {
            "buffer" : 0,
            "byteLength" : 3072,
            "byteOffset" : 56660
        },
        {
            "buffer" : 0,
            "byteLength" : 2048,
            "byteOffset" : 59732
        },
        {
            "buffer" : 0,
            "byteLength" : 768,
            "byteOffset" : 61780
        },
        {
            "buffer" : 0,
            "byteLength" : 956,
            "byteOffset" : 62548
        },
        {
            "buffer" : 0,
            "byteLength" : 3824,
            "byteOffset" : 63504
        }
    ],
    "samplers" : [
        {
            "magFilter" : 9729,
            "minFilter" : 9987
        }
    ],
    "buffers" : [
        {
            "byteLength" : 67328,
            "uri" : "data:application/octet-stream;base64,"
        }
    ]
}
