{
    "asset" : {
        "generator" : "Khronos glTF Blender I/O v1.7.33",
        "version" : "2.0"
    },
    "scene" : 0,
    "scenes" : [
        {
            "name" : "Scene",
            "nodes" : [
                0,
                1,
                2,
                3,
                4,
                5,
                6
            ]
        }
    ],
    "nodes" : [
        {
            "mesh" : 0,
            "name" : "Cube.003",
            "scale" : [
                1.0579521656036377,
                1.0579521656036377,
                1.0579521656036377
            ]
        },
        {
            "mesh" : 1,
            "name" : "Cube.001",
            "scale" : [
                1.0579521656036377,
                1.0579521656036377,
                1.0579521656036377
            ]
        },
        {
            "mesh" : 2,
            "name" : "Cube.002",
            "scale" : [
                1.0579521656036377,
                1.0579521656036377,
                1.0579521656036377
            ]
        },
        {
            "mesh" : 3,
            "name" : "Cube.004",
            "scale" : [
                1.0579521656036377,
                1.0579521656036377,
                1.0579521656036377
            ]
        },
        {
            "mesh" : 4,
            "name" : "Cube.005",
            "scale" : [
                1.0579521656036377,
                1.0579521656036377,
                1.0579521656036377
            ]
        },
        {
            "mesh" : 5,
            "name" : "Cube.006",
            "scale" : [
                1.0579521656036377,
                1.0579521656036377,
                1.0579521656036377
            ]
        },
        {
            "mesh" : 6,
            "name" : "Cube.007",
            "scale" : [
                1.0579521656036377,
                1.0579521656036377,
                1.0579521656036377
            ]
        }
    ],
    "materials" : [
        {
            "doubleSided" : true,
            "name" : "black",
            "pbrMetallicRoughness" : {
                "baseColorFactor" : [
                    0,
                    0,
                    0,
                    1
                ],
                "metallicFactor" : 0,
                "roughnessFactor" : 0.5
            }
        },
        {
            "doubleSided" : true,
            "name" : "door-frame",
            "pbrMetallicRoughness" : {
                "baseColorFactor" : [
                    0.24619518220424652,
                    0.24619518220424652,
                    0.24619518220424652,
                    1
                ],
                "metallicFactor" : 0,
                "roughnessFactor" : 0.5
            }
        },
        {
            "doubleSided" : true,
            "name" : "door-self",
            "pbrMetallicRoughness" : {
                "baseColorFactor" : [
                    0.09850451350212097,
                    0.05706653371453285,
                    0.0015326947905123234,
                    1
                ],
                "metallicFactor" : 0,
                "roughnessFactor" : 0.5
            }
        },
        {
            "doubleSided" : true,
            "name" : "roof",
            "pbrMetallicRoughness" : {
                "baseColorFactor" : [
                    0.02909974381327629,
                    0.01306060515344143,
                    0,
                    1
                ],
                "metallicFactor" : 0
            }
        },
        {
            "doubleSided" : true,
            "name" : "walls",
            "pbrMetallicRoughness" : {
                "baseColorFactor" : [
                    0.7702372074127197,
                    0.8000000715255737,
                    0.49689650535583496,
                    1
                ],
                "metallicFactor" : 0
            }
        },
        {
            "doubleSided" : true,
            "name" : "chimney-base",
            "pbrMetallicRoughness" : {
                "baseColorFactor" : [
                    0.057802874594926834,
                    0.057802874594926834,
                    0.057802874594926834,
                    1
                ],
                "metallicFactor" : 0,
                "roughnessFactor" : 0.5
            }
        },
        {
            "doubleSided" : true,
            "name" : "chimeny-top",
            "pbrMetallicRoughness" : {
                "baseColorFactor" : [
                    0.1192762702703476,
                    0.1192762702703476,
                    0.1192762702703476,
                    1
                ],
                "metallicFactor" : 0,
                "roughnessFactor" : 0.5
            }
        }
    ],
    "meshes" : [
        {
            "name" : "Cube.004",
            "primitives" : [
                {
                    "attributes" : {
                        "POSITION" : 0,
                        "NORMAL" : 1,
                        "TEXCOORD_0" : 2
                    },
                    "indices" : 3,
                    "material" : 0
                }
            ]
        },
        {
            "name" : "Cube.001",
            "primitives" : [
                {
                    "attributes" : {
                        "POSITION" : 4,
                        "NORMAL" : 5,
                        "TEXCOORD_0" : 6
                    },
                    "indices" : 7,
                    "material" : 1
                }
            ]
        },
        {
            "name" : "Cube.002",
            "primitives" : [
                {
                    "attributes" : {
                        "POSITION" : 8,
                        "NORMAL" : 9,
                        "TEXCOORD_0" : 10
                    },
                    "indices" : 11,
                    "material" : 2
                }
            ]
        },
        {
            "name" : "Cube.003",
            "primitives" : [
                {
                    "attributes" : {
                        "POSITION" : 12,
                        "NORMAL" : 13,
                        "TEXCOORD_0" : 14
                    },
                    "indices" : 15,
                    "material" : 3
                }
            ]
        },
        {
            "name" : "Cube.005",
            "primitives" : [
                {
                    "attributes" : {
                        "POSITION" : 16,
                        "NORMAL" : 17,
                        "TEXCOORD_0" : 18
                    },
                    "indices" : 19,
                    "material" : 4
                }
            ]
        },
        {
            "name" : "Cube.006",
            "primitives" : [
                {
                    "attributes" : {
                        "POSITION" : 20,
                        "NORMAL" : 21,
                        "TEXCOORD_0" : 22
                    },
                    "indices" : 23,
                    "material" : 5
                }
            ]
        },
        {
            "name" : "Cube.007",
            "primitives" : [
                {
                    "attributes" : {
                        "POSITION" : 24,
                        "NORMAL" : 25,
                        "TEXCOORD_0" : 26
                    },
                    "indices" : 27,
                    "material" : 6
                }
            ]
        }
    ],
    "accessors" : [
        {
            "bufferView" : 0,
            "componentType" : 5126,
            "count" : 4,
            "max" : [
                1.5203359127044678,
                2.8814542293548584,
                -0.19137603044509888
            ],
            "min" : [
                1.0761239528656006,
                2.8814542293548584,
                -0.8398211002349854
            ],
            "type" : "VEC3"
        },
        {
            "bufferView" : 1,
            "componentType" : 5126,
            "count" : 4,
            "type" : "VEC3"
        },
        {
            "bufferView" : 2,
            "componentType" : 5126,
            "count" : 4,
            "type" : "VEC2"
        },
        {
            "bufferView" : 3,
            "componentType" : 5123,
            "count" : 6,
            "type" : "SCALAR"
        },
        {
            "bufferView" : 4,
            "componentType" : 5126,
            "count" : 56,
            "max" : [
                0.867436408996582,
                1.6910576820373535,
                1.5023844242095947
            ],
            "min" : [
                -0.047624800354242325,
                -0.005854606628417969,
                0.49384117126464844
            ],
            "type" : "VEC3"
        },
        {
            "bufferView" : 5,
            "componentType" : 5126,
            "count" : 56,
            "type" : "VEC3"
        },
        {
            "bufferView" : 6,
            "componentType" : 5126,
            "count" : 56,
            "type" : "VEC2"
        },
        {
            "bufferView" : 7,
            "componentType" : 5123,
            "count" : 84,
            "type" : "SCALAR"
        },
        {
            "bufferView" : 8,
            "componentType" : 5126,
            "count" : 4,
            "max" : [
                0.7265657186508179,
                1.5431413650512695,
                1.3893951177597046
            ],
            "min" : [
                0.13640013337135315,
                0.015855908393859863,
                1.370406150817871
            ],
            "type" : "VEC3"
        },
        {
            "bufferView" : 9,
            "componentType" : 5126,
            "count" : 4,
            "type" : "VEC3"
        },
        {
            "bufferView" : 10,
            "componentType" : 5126,
            "count" : 4,
            "type" : "VEC2"
        },
        {
            "bufferView" : 11,
            "componentType" : 5123,
            "count" : 6,
            "type" : "SCALAR"
        },
        {
            "bufferView" : 12,
            "componentType" : 5126,
            "count" : 96,
            "max" : [
                1.688488483428955,
                3.051426649093628,
                1.7996042966842651
            ],
            "min" : [
                -1.6998660564422607,
                1.8334991931915283,
                -1.8025678396224976
            ],
            "type" : "VEC3"
        },
        {
            "bufferView" : 13,
            "componentType" : 5126,
            "count" : 96,
            "type" : "VEC3"
        },
        {
            "bufferView" : 14,
            "componentType" : 5126,
            "count" : 96,
            "type" : "VEC2"
        },
        {
            "bufferView" : 15,
            "componentType" : 5123,
            "count" : 150,
            "type" : "SCALAR"
        },
        {
            "bufferView" : 16,
            "componentType" : 5126,
            "count" : 38,
            "max" : [
                1.3797621726989746,
                2.879070997238159,
                1.3839690685272217
            ],
            "min" : [
                -1.3911395072937012,
                -0.0032227039337158203,
                -1.386932611465454
            ],
            "type" : "VEC3"
        },
        {
            "bufferView" : 17,
            "componentType" : 5126,
            "count" : 38,
            "type" : "VEC3"
        },
        {
            "bufferView" : 18,
            "componentType" : 5126,
            "count" : 38,
            "type" : "VEC2"
        },
        {
            "bufferView" : 19,
            "componentType" : 5123,
            "count" : 42,
            "type" : "SCALAR"
        },
        {
            "bufferView" : 20,
            "componentType" : 5126,
            "count" : 52,
            "max" : [
                1.63014554977417,
                2.8330838680267334,
                0.06014614552259445
            ],
            "min" : [
                1.0305790901184082,
                -0.005243182182312012,
                -1.0913434028625488
            ],
            "type" : "VEC3"
        },
        {
            "bufferView" : 21,
            "componentType" : 5126,
            "count" : 52,
            "type" : "VEC3"
        },
        {
            "bufferView" : 22,
            "componentType" : 5126,
            "count" : 52,
            "type" : "VEC2"
        },
        {
            "bufferView" : 23,
            "componentType" : 5123,
            "count" : 78,
            "type" : "SCALAR"
        },
        {
            "bufferView" : 24,
            "componentType" : 5126,
            "count" : 56,
            "max" : [
                1.623220443725586,
                2.9716293811798096,
                -0.08723684400320053
            ],
            "min" : [
                0.973239541053772,
                2.8330838680267334,
                -0.9439606070518494
            ],
            "type" : "VEC3"
        },
        {
            "bufferView" : 25,
            "componentType" : 5126,
            "count" : 56,
            "type" : "VEC3"
        },
        {
            "bufferView" : 26,
            "componentType" : 5126,
            "count" : 56,
            "type" : "VEC2"
        },
        {
            "bufferView" : 27,
            "componentType" : 5123,
            "count" : 84,
            "type" : "SCALAR"
        }
    ],
    "bufferViews" : [
        {
            "buffer" : 0,
            "byteLength" : 48,
            "byteOffset" : 0
        },
        {
            "buffer" : 0,
            "byteLength" : 48,
            "byteOffset" : 48
        },
        {
            "buffer" : 0,
            "byteLength" : 32,
            "byteOffset" : 96
        },
        {
            "buffer" : 0,
            "byteLength" : 12,
            "byteOffset" : 128
        },
        {
            "buffer" : 0,
            "byteLength" : 672,
            "byteOffset" : 140
        },
        {
            "buffer" : 0,
            "byteLength" : 672,
            "byteOffset" : 812
        },
        {
            "buffer" : 0,
            "byteLength" : 448,
            "byteOffset" : 1484
        },
        {
            "buffer" : 0,
            "byteLength" : 168,
            "byteOffset" : 1932
        },
        {
            "buffer" : 0,
            "byteLength" : 48,
            "byteOffset" : 2100
        },
        {
            "buffer" : 0,
            "byteLength" : 48,
            "byteOffset" : 2148
        },
        {
            "buffer" : 0,
            "byteLength" : 32,
            "byteOffset" : 2196
        },
        {
            "buffer" : 0,
            "byteLength" : 12,
            "byteOffset" : 2228
        },
        {
            "buffer" : 0,
            "byteLength" : 1152,
            "byteOffset" : 2240
        },
        {
            "buffer" : 0,
            "byteLength" : 1152,
            "byteOffset" : 3392
        },
        {
            "buffer" : 0,
            "byteLength" : 768,
            "byteOffset" : 4544
        },
        {
            "buffer" : 0,
            "byteLength" : 300,
            "byteOffset" : 5312
        },
        {
            "buffer" : 0,
            "byteLength" : 456,
            "byteOffset" : 5612
        },
        {
            "buffer" : 0,
            "byteLength" : 456,
            "byteOffset" : 6068
        },
        {
            "buffer" : 0,
            "byteLength" : 304,
            "byteOffset" : 6524
        },
        {
            "buffer" : 0,
            "byteLength" : 84,
            "byteOffset" : 6828
        },
        {
            "buffer" : 0,
            "byteLength" : 624,
            "byteOffset" : 6912
        },
        {
            "buffer" : 0,
            "byteLength" : 624,
            "byteOffset" : 7536
        },
        {
            "buffer" : 0,
            "byteLength" : 416,
            "byteOffset" : 8160
        },
        {
            "buffer" : 0,
            "byteLength" : 156,
            "byteOffset" : 8576
        },
        {
            "buffer" : 0,
            "byteLength" : 672,
            "byteOffset" : 8732
        },
        {
            "buffer" : 0,
            "byteLength" : 672,
            "byteOffset" : 9404
        },
        {
            "buffer" : 0,
            "byteLength" : 448,
            "byteOffset" : 10076
        },
        {
            "buffer" : 0,
            "byteLength" : 168,
            "byteOffset" : 10524
        }
    ],
    "buffers" : [
        {
            "byteLength" : 10692,
            "uri" : "data:application/octet-stream;base64,"
        }
    ]
}
