{
    "asset" : {
        "generator" : "Khronos glTF Blender I/O v1.7.33",
        "version" : "2.0"
    },
    "scene" : 0,
    "scenes" : [
        {
            "name" : "Scene",
            "nodes" : [
                0
            ]
        }
    ],
    "nodes" : [
        {
            "mesh" : 0,
            "name" : "Plane"
        }
    ],
    "materials" : [
        {
            "doubleSided" : true,
            "name" : "walls",
            "pbrMetallicRoughness" : {
                "baseColorFactor" : [
                    0.947306752204895,
                    0.7758222222328186,
                    0.4735316038131714,
                    1
                ],
                "metallicFactor" : 0,
                "roughnessFactor" : 0.5
            }
        },
        {
            "doubleSided" : true,
            "name" : "wood",
            "pbrMetallicRoughness" : {
                "baseColorFactor" : [
                    0.10247336328029633,
                    0.05956001952290535,
                    0.009827511385083199,
                    1
                ],
                "metallicFactor" : 0,
                "roughnessFactor" : 0.5
            }
        },
        {
            "doubleSided" : true,
            "name" : "roof",
            "pbrMetallicRoughness" : {
                "baseColorFactor" : [
                    0.47698974609375,
                    0.1664164513349533,
                    0.01253811176866293,
                    1
                ],
                "metallicFactor" : 0,
                "roughnessFactor" : 0.5
            }
        },
        {
            "doubleSided" : true,
            "name" : "base",
            "pbrMetallicRoughness" : {
                "baseColorFactor" : [
                    0.20190081000328064,
                    0.20190081000328064,
                    0.20190081000328064,
                    1
                ],
                "metallicFactor" : 0,
                "roughnessFactor" : 0.5
            }
        },
        {
            "doubleSided" : true,
            "name" : "wood.001",
            "pbrMetallicRoughness" : {
                "baseColorFactor" : [
                    0.12370854616165161,
                    0.06107132509350777,
                    0.026330696418881416,
                    1
                ],
                "metallicFactor" : 0,
                "roughnessFactor" : 0.5
            }
        },
        {
            "doubleSided" : true,
            "name" : "metal",
            "pbrMetallicRoughness" : {
                "baseColorFactor" : [
                    0.11927536875009537,
                    0.11927536875009537,
                    0.11927536875009537,
                    1
                ],
                "metallicFactor" : 0,
                "roughnessFactor" : 0.5
            }
        }
    ],
    "meshes" : [
        {
            "name" : "Plane",
            "primitives" : [
                {
                    "attributes" : {
                        "POSITION" : 0,
                        "NORMAL" : 1,
                        "TEXCOORD_0" : 2
                    },
                    "indices" : 3,
                    "material" : 0
                },
                {
                    "attributes" : {
                        "POSITION" : 4,
                        "NORMAL" : 5,
                        "TEXCOORD_0" : 6
                    },
                    "indices" : 7,
                    "material" : 1
                },
                {
                    "attributes" : {
                        "POSITION" : 8,
                        "NORMAL" : 9,
                        "TEXCOORD_0" : 10
                    },
                    "indices" : 11,
                    "material" : 2
                },
                {
                    "attributes" : {
                        "POSITION" : 12,
                        "NORMAL" : 13,
                        "TEXCOORD_0" : 14
                    },
                    "indices" : 15,
                    "material" : 3
                },
                {
                    "attributes" : {
                        "POSITION" : 16,
                        "NORMAL" : 17,
                        "TEXCOORD_0" : 18
                    },
                    "indices" : 19,
                    "material" : 4
                },
                {
                    "attributes" : {
                        "POSITION" : 20,
                        "NORMAL" : 21,
                        "TEXCOORD_0" : 22
                    },
                    "indices" : 23,
                    "material" : 5
                }
            ]
        }
    ],
    "accessors" : [
        {
            "bufferView" : 0,
            "componentType" : 5126,
            "count" : 108,
            "max" : [
                1.5,
                2,
                1.5
            ],
            "min" : [
                -1.5,
                -1,
                -1.5
            ],
            "type" : "VEC3"
        },
        {
            "bufferView" : 1,
            "componentType" : 5126,
            "count" : 108,
            "type" : "VEC3"
        },
        {
            "bufferView" : 2,
            "componentType" : 5126,
            "count" : 108,
            "type" : "VEC2"
        },
        {
            "bufferView" : 3,
            "componentType" : 5123,
            "count" : 162,
            "type" : "SCALAR"
        },
        {
            "bufferView" : 4,
            "componentType" : 5126,
            "count" : 348,
            "max" : [
                1.3500001430511475,
                2,
                1.2747448682785034
            ],
            "min" : [
                -1.2730473279953003,
                0,
                -1.3499999046325684
            ],
            "type" : "VEC3"
        },
        {
            "bufferView" : 5,
            "componentType" : 5126,
            "count" : 348,
            "type" : "VEC3"
        },
        {
            "bufferView" : 6,
            "componentType" : 5126,
            "count" : 348,
            "type" : "VEC2"
        },
        {
            "bufferView" : 7,
            "componentType" : 5123,
            "count" : 522,
            "type" : "SCALAR"
        },
        {
            "bufferView" : 8,
            "componentType" : 5126,
            "count" : 324,
            "max" : [
                1.4431705474853516,
                2.999999761581421,
                1.3700001239776611
            ],
            "min" : [
                -1.369999885559082,
                1,
                -1.4431703090667725
            ],
            "type" : "VEC3"
        },
        {
            "bufferView" : 9,
            "componentType" : 5126,
            "count" : 324,
            "type" : "VEC3"
        },
        {
            "bufferView" : 10,
            "componentType" : 5126,
            "count" : 324,
            "type" : "VEC2"
        },
        {
            "bufferView" : 11,
            "componentType" : 5123,
            "count" : 480,
            "type" : "SCALAR"
        },
        {
            "bufferView" : 12,
            "componentType" : 5126,
            "count" : 20,
            "max" : [
                1.5,
                0,
                1.5
            ],
            "min" : [
                -1.5,
                -1,
                -1.5
            ],
            "type" : "VEC3"
        },
        {
            "bufferView" : 13,
            "componentType" : 5126,
            "count" : 20,
            "type" : "VEC3"
        },
        {
            "bufferView" : 14,
            "componentType" : 5126,
            "count" : 20,
            "type" : "VEC2"
        },
        {
            "bufferView" : 15,
            "componentType" : 5123,
            "count" : 30,
            "type" : "SCALAR"
        },
        {
            "bufferView" : 16,
            "componentType" : 5126,
            "count" : 480,
            "max" : [
                0.3360196053981781,
                0.47488266229629517,
                -0.4311809539794922
            ],
            "min" : [
                -0.07579633593559265,
                -0.0034803450107574463,
                -1.1351243257522583
            ],
            "type" : "VEC3"
        },
        {
            "bufferView" : 17,
            "componentType" : 5126,
            "count" : 480,
            "type" : "VEC3"
        },
        {
            "bufferView" : 18,
            "componentType" : 5126,
            "count" : 480,
            "type" : "VEC2"
        },
        {
            "bufferView" : 19,
            "componentType" : 5123,
            "count" : 744,
            "type" : "SCALAR"
        },
        {
            "bufferView" : 20,
            "componentType" : 5126,
            "count" : 480,
            "max" : [
                0.33844810724258423,
                0.46312808990478516,
                -0.4272193908691406
            ],
            "min" : [
                -0.08285671472549438,
                0.008852720260620117,
                -1.1436177492141724
            ],
            "type" : "VEC3"
        },
        {
            "bufferView" : 21,
            "componentType" : 5126,
            "count" : 480,
            "type" : "VEC3"
        },
        {
            "bufferView" : 22,
            "componentType" : 5126,
            "count" : 480,
            "type" : "VEC2"
        },
        {
            "bufferView" : 23,
            "componentType" : 5123,
            "count" : 792,
            "type" : "SCALAR"
        }
    ],
    "bufferViews" : [
        {
            "buffer" : 0,
            "byteLength" : 1296,
            "byteOffset" : 0
        },
        {
            "buffer" : 0,
            "byteLength" : 1296,
            "byteOffset" : 1296
        },
        {
            "buffer" : 0,
            "byteLength" : 864,
            "byteOffset" : 2592
        },
        {
            "buffer" : 0,
            "byteLength" : 324,
            "byteOffset" : 3456
        },
        {
            "buffer" : 0,
            "byteLength" : 4176,
            "byteOffset" : 3780
        },
        {
            "buffer" : 0,
            "byteLength" : 4176,
            "byteOffset" : 7956
        },
        {
            "buffer" : 0,
            "byteLength" : 2784,
            "byteOffset" : 12132
        },
        {
            "buffer" : 0,
            "byteLength" : 1044,
            "byteOffset" : 14916
        },
        {
            "buffer" : 0,
            "byteLength" : 3888,
            "byteOffset" : 15960
        },
        {
            "buffer" : 0,
            "byteLength" : 3888,
            "byteOffset" : 19848
        },
        {
            "buffer" : 0,
            "byteLength" : 2592,
            "byteOffset" : 23736
        },
        {
            "buffer" : 0,
            "byteLength" : 960,
            "byteOffset" : 26328
        },
        {
            "buffer" : 0,
            "byteLength" : 240,
            "byteOffset" : 27288
        },
        {
            "buffer" : 0,
            "byteLength" : 240,
            "byteOffset" : 27528
        },
        {
            "buffer" : 0,
            "byteLength" : 160,
            "byteOffset" : 27768
        },
        {
            "buffer" : 0,
            "byteLength" : 60,
            "byteOffset" : 27928
        },
        {
            "buffer" : 0,
            "byteLength" : 5760,
            "byteOffset" : 27988
        },
        {
            "buffer" : 0,
            "byteLength" : 5760,
            "byteOffset" : 33748
        },
        {
            "buffer" : 0,
            "byteLength" : 3840,
            "byteOffset" : 39508
        },
        {
            "buffer" : 0,
            "byteLength" : 1488,
            "byteOffset" : 43348
        },
        {
            "buffer" : 0,
            "byteLength" : 5760,
            "byteOffset" : 44836
        },
        {
            "buffer" : 0,
            "byteLength" : 5760,
            "byteOffset" : 50596
        },
        {
            "buffer" : 0,
            "byteLength" : 3840,
            "byteOffset" : 56356
        },
        {
            "buffer" : 0,
            "byteLength" : 1584,
            "byteOffset" : 60196
        }
    ],
    "buffers" : [
        {
            "byteLength" : 61780,
            "uri" : "data:application/octet-stream;base64,"
        }
    ]
}
