{
    "asset" : {
        "generator" : "Khronos glTF Blender I/O v1.7.33",
        "version" : "2.0"
    },
    "scene" : 0,
    "scenes" : [
        {
            "name" : "Scene",
            "nodes" : [
                0
            ]
        }
    ],
    "nodes" : [
        {
            "mesh" : 0,
            "name" : "Plane.002",
            "scale" : [
                2,
                1.898419976234436,
                2
            ]
        }
    ],
    "materials" : [
        {
            "doubleSided" : true,
            "name" : "canopy",
            "pbrMetallicRoughness" : {
                "baseColorFactor" : [
                    0.11953845620155334,
                    0.21952618658542633,
                    0.01680738851428032,
                    1
                ],
                "metallicFactor" : 0
            }
        },
        {
            "doubleSided" : true,
            "name" : "trunk",
            "pbrMetallicRoughness" : {
                "baseColorFactor" : [
                    0.11068858951330185,
                    0.05614372715353966,
                    0,
                    1
                ],
                "metallicFactor" : 0
            }
        }
    ],
    "meshes" : [
        {
            "name" : "Plane.002",
            "primitives" : [
                {
                    "attributes" : {
                        "POSITION" : 0,
                        "NORMAL" : 1,
                        "TEXCOORD_0" : 2
                    },
                    "indices" : 3,
                    "material" : 0
                },
                {
                    "attributes" : {
                        "POSITION" : 4,
                        "NORMAL" : 5,
                        "TEXCOORD_0" : 6
                    },
                    "indices" : 7,
                    "material" : 1
                }
            ]
        }
    ],
    "accessors" : [
        {
            "bufferView" : 0,
            "componentType" : 5126,
            "count" : 252,
            "max" : [
                0.21091577410697937,
                0.6040272116661072,
                0.22422829270362854
            ],
            "min" : [
                -0.15167449414730072,
                0.2366446554660797,
                -0.24883802235126495
            ],
            "type" : "VEC3"
        },
        {
            "bufferView" : 1,
            "componentType" : 5126,
            "count" : 252,
            "type" : "VEC3"
        },
        {
            "bufferView" : 2,
            "componentType" : 5126,
            "count" : 252,
            "type" : "VEC2"
        },
        {
            "bufferView" : 3,
            "componentType" : 5123,
            "count" : 258,
            "type" : "SCALAR"
        },
        {
            "bufferView" : 4,
            "componentType" : 5126,
            "count" : 216,
            "max" : [
                0.14651711285114288,
                0.39818882942199707,
                0.11762784421443939
            ],
            "min" : [
                -0.05290023982524872,
                -0.0016120653599500656,
                -0.1721581071615219
            ],
            "type" : "VEC3"
        },
        {
            "bufferView" : 5,
            "componentType" : 5126,
            "count" : 216,
            "type" : "VEC3"
        },
        {
            "bufferView" : 6,
            "componentType" : 5126,
            "count" : 216,
            "type" : "VEC2"
        },
        {
            "bufferView" : 7,
            "componentType" : 5123,
            "count" : 324,
            "type" : "SCALAR"
        }
    ],
    "bufferViews" : [
        {
            "buffer" : 0,
            "byteLength" : 3024,
            "byteOffset" : 0
        },
        {
            "buffer" : 0,
            "byteLength" : 3024,
            "byteOffset" : 3024
        },
        {
            "buffer" : 0,
            "byteLength" : 2016,
            "byteOffset" : 6048
        },
        {
            "buffer" : 0,
            "byteLength" : 516,
            "byteOffset" : 8064
        },
        {
            "buffer" : 0,
            "byteLength" : 2592,
            "byteOffset" : 8580
        },
        {
            "buffer" : 0,
            "byteLength" : 2592,
            "byteOffset" : 11172
        },
        {
            "buffer" : 0,
            "byteLength" : 1728,
            "byteOffset" : 13764
        },
        {
            "buffer" : 0,
            "byteLength" : 648,
            "byteOffset" : 15492
        }
    ],
    "buffers" : [
        {
            "byteLength" : 16140,
            "uri" : "data:application/octet-stream;base64,"
        }
    ]
}
